# xmcd CD database file
#
# Track frame offsets:
#	150
#	22206
#	41173
#	60466
#	88654
#	106559
#	127583
#	143599
#	162850
#	182196
#	204812
#	220650
#
# Disc length: 3187 seconds
#
# Revision: 0
# Processed by: cddbd v1.5.2PL0 Copyright (c) Steve Scherf et al.
# Submitted via: CDex 1.70beta2
#
DISCID=960c710c
DTITLE=Asian Dub Foundation - Punkara
DYEAR=2008
DGENRE=Rhythmic Soul
TTITLE0=Superpower
TTITLE1=Burning Fence
TTITLE2=No Fun
TTITLE3=Speed of Light
TTITLE4=Ease Up Caesar
TTITLE5=S.O.C.A.
TTITLE6=Target Practice
TTITLE7=Living Under the Radar(Ghostplane)
TTITLE8=Altered Statesman
TTITLE9=Bride of Paradise
TTITLE10=Stop the Bleeding
TTITLE11=Awake/Asleep
EXTD=YEAR: 2008
EXTT0=
EXTT1=
EXTT2=
EXTT3=
EXTT4=
EXTT5=
EXTT6=
EXTT7=
EXTT8=
EXTT9=
EXTT10=
EXTT11=
PLAYORDER=
